# xmcd
#
# Track frame offsets: 
#        182
#        17907
#        34215
#        48647
#        73500
#        96997
#        114077
#        132650
#        147627
#        165682
#        191400
#        207957
#
# Disc length: 3040 seconds
#
# Revision: 4
# Processed by: cddbd v1.5.1PL2 Copyright (c) Steve Scherf et al.
# Submitted via: ExactAudioCopy v0.95a5
#
DISCID=b40bde0c
DTITLE=Tab Benoit - Standing on the Bank
DYEAR=1995
DGENRE=Blues
TTITLE0=Make Your Mind Up
TTITLE1=Me And My Guitar
TTITLE2=Downtown
TTITLE3=Standing On The Bank
TTITLE4=Matchbox Blues
TTITLE5=Rainy Day Blues
TTITLE6=You Got What I Want
TTITLE7=The Seventh Son
TTITLE8=If I Could Quit You
TTITLE9=Laundromat Blues
TTITLE10=Going Down
TTITLE11=Still Going Down the Road
EXTD=(p)(c) Justice 1995
EXTT0=
EXTT1=
EXTT2=
EXTT3=
EXTT4=
EXTT5=
EXTT6=
EXTT7=
EXTT8=
EXTT9=
EXTT10=
EXTT11=
PLAYORDER=
